<?xml version="1.0" encoding="UTF-8" standalone="no"?>
<!DOCTYPE svg PUBLIC "-//W3C//DTD SVG 1.0//EN" "http://www.w3.org/TR/2001/PR-SVG-20010719/DTD/svg10.dtd">
<svg width="16cm" height="21cm" viewBox="159 69 302 412" xmlns="http://www.w3.org/2000/svg" xmlns:xlink="http://www.w3.org/1999/xlink">
  <g>
    <polygon style="fill: #ffffff" points="250,280 290,310 250,340 210,310 "/>
    <polygon style="fill: none; fill-opacity:0; stroke-width: 1; stroke: #000000" points="250,280 290,310 250,340 210,310 "/>
    <text font-size="6.77333" style="fill: #000000;text-anchor:middle;font-family:sans-serif;font-style:normal;font-weight:normal" x="250" y="308.283">
      <tspan x="250" y="308.283">Found matching</tspan>
      <tspan x="250" y="316.75">Code Macro ?</tspan>
    </text>
  </g>
  <g>
    <rect style="fill: #ffffff" x="330" y="295" width="120" height="30"/>
    <rect style="fill: none; fill-opacity:0; stroke-width: 1; stroke: #000000" x="330" y="295" width="120" height="30"/>
    <text font-size="6.77333" style="fill: #000000;text-anchor:middle;font-family:sans-serif;font-style:normal;font-weight:normal" x="390" y="312.517">
      <tspan x="390" y="312.517">Code Macro</tspan>
    </text>
  </g>
  <g>
    <rect style="fill: #ffffff" x="190" y="355" width="120" height="30"/>
    <rect style="fill: none; fill-opacity:0; stroke-width: 1; stroke: #000000" x="190" y="355" width="120" height="30"/>
    <line style="fill: none; fill-opacity:0; stroke-width: 1; stroke: #000000" x1="202" y1="355" x2="202" y2="385"/>
    <line style="fill: none; fill-opacity:0; stroke-width: 1; stroke: #000000" x1="298" y1="355" x2="298" y2="385"/>
    <text font-size="6.77333" style="fill: #000000;text-anchor:middle;font-family:sans-serif;font-style:normal;font-weight:normal" x="250" y="368.307">
      <tspan x="250" y="368.307">Built-in Code</tspan>
      <tspan x="250" y="376.773">Processing</tspan>
    </text>
  </g>
  <g>
    <polygon style="fill: #ffffff" points="250,170 290,200 250,230 210,200 "/>
    <polygon style="fill: none; fill-opacity:0; stroke-width: 1; stroke: #000000" points="250,170 290,200 250,230 210,200 "/>
    <text font-size="6.77333" style="fill: #000000;text-anchor:middle;font-family:sans-serif;font-style:normal;font-weight:normal" x="250" y="198.283">
      <tspan x="250" y="198.283">All Codes</tspan>
      <tspan x="250" y="206.75">processed ?</tspan>
    </text>
  </g>
  <g>
    <line style="fill: none; fill-opacity:0; stroke-width: 1; stroke: #000000" x1="250" y1="150" x2="250" y2="165.5"/>
    <polygon style="fill: #000000" points="248,165.5 250,169.5 252,165.5 "/>
    <polygon style="fill: none; fill-opacity:0; stroke-width: 1; stroke: #000000" points="248,165.5 250,169.5 252,165.5 "/>
  </g>
  <g>
    <polyline style="fill: none; fill-opacity:0; stroke-width: 1; stroke: #000000" points="250,385 250,410 160,410 160,160 245.5,160 "/>
    <polygon style="fill: #000000" points="245.5,162 249.5,160 245.5,158 "/>
    <polygon style="fill: none; fill-opacity:0; stroke-width: 1; stroke: #000000" points="245.5,162 249.5,160 245.5,158 "/>
  </g>
  <g>
    <path style="fill: #ffffff" d="M 216.667 70 L 283.333,70 C 292.538,70 300,76.7157 300,85 C 300,93.2843 292.538,100 283.333,100 L 216.667,100 C 207.462,100 200,93.2843 200,85 C 200,76.7157 207.462,70 216.667,70z"/>
    <path style="fill: none; fill-opacity:0; stroke-width: 1; stroke: #000000" d="M 216.667 70 L 283.333,70 C 292.538,70 300,76.7157 300,85 C 300,93.2843 292.538,100 283.333,100 L 216.667,100 C 207.462,100 200,93.2843 200,85 C 200,76.7157 207.462,70 216.667,70"/>
    <text font-size="6.77333" style="fill: #000000;text-anchor:middle;font-family:sans-serif;font-style:normal;font-weight:normal" x="250" y="83.3067">
      <tspan x="250" y="83.3067">Start of</tspan>
      <tspan x="250" y="91.7733">Code Processing</tspan>
    </text>
  </g>
  <g>
    <rect style="fill: #ffffff" x="190" y="120" width="120" height="30"/>
    <rect style="fill: none; fill-opacity:0; stroke-width: 1; stroke: #000000" x="190" y="120" width="120" height="30"/>
    <line style="fill: none; fill-opacity:0; stroke-width: 1; stroke: #000000" x1="202" y1="120" x2="202" y2="150"/>
    <line style="fill: none; fill-opacity:0; stroke-width: 1; stroke: #000000" x1="298" y1="120" x2="298" y2="150"/>
    <text font-size="6.77333" style="fill: #000000;text-anchor:middle;font-family:sans-serif;font-style:normal;font-weight:normal" x="250" y="133.307">
      <tspan x="250" y="133.307">Sequence number</tspan>
      <tspan x="250" y="141.773">and Opskip</tspan>
    </text>
  </g>
  <g>
    <path style="fill: #ffffff" d="M 356.667 185 L 423.333,185 C 432.538,185 440,191.716 440,200 C 440,208.284 432.538,215 423.333,215 L 356.667,215 C 347.462,215 340,208.284 340,200 C 340,191.716 347.462,185 356.667,185z"/>
    <path style="fill: none; fill-opacity:0; stroke-width: 1; stroke: #000000" d="M 356.667 185 L 423.333,185 C 432.538,185 440,191.716 440,200 C 440,208.284 432.538,215 423.333,215 L 356.667,215 C 347.462,215 340,208.284 340,200 C 340,191.716 347.462,185 356.667,185"/>
    <text font-size="6.77333" style="fill: #000000;text-anchor:middle;font-family:sans-serif;font-style:normal;font-weight:normal" x="390" y="198.307">
      <tspan x="390" y="198.307">End of</tspan>
      <tspan x="390" y="206.773">Code Processing</tspan>
    </text>
  </g>
  <g>
    <line style="fill: none; fill-opacity:0; stroke-width: 1; stroke: #000000" x1="250" y1="100" x2="250" y2="115.5"/>
    <polygon style="fill: #000000" points="248,115.5 250,119.5 252,115.5 "/>
    <polygon style="fill: none; fill-opacity:0; stroke-width: 1; stroke: #000000" points="248,115.5 250,119.5 252,115.5 "/>
  </g>
  <g>
    <line style="fill: none; fill-opacity:0; stroke-width: 1; stroke: #000000" x1="290" y1="200" x2="335.5" y2="200"/>
    <polygon style="fill: #000000" points="335.5,202 339.5,200 335.5,198 "/>
    <polygon style="fill: none; fill-opacity:0; stroke-width: 1; stroke: #000000" points="335.5,202 339.5,200 335.5,198 "/>
  </g>
  <g>
    <rect style="fill: #ffffff" x="190" y="240" width="120" height="30"/>
    <rect style="fill: none; fill-opacity:0; stroke-width: 1; stroke: #000000" x="190" y="240" width="120" height="30"/>
    <line style="fill: none; fill-opacity:0; stroke-width: 1; stroke: #000000" x1="202" y1="240" x2="202" y2="270"/>
    <line style="fill: none; fill-opacity:0; stroke-width: 1; stroke: #000000" x1="298" y1="240" x2="298" y2="270"/>
    <text font-size="6.77333" style="fill: #000000;text-anchor:middle;font-family:sans-serif;font-style:normal;font-weight:normal" x="250" y="253.307">
      <tspan x="250" y="253.307">Choose Code with</tspan>
      <tspan x="250" y="261.773">lowest "Order" </tspan>
    </text>
  </g>
  <g>
    <line style="fill: none; fill-opacity:0; stroke-width: 1; stroke: #000000" x1="250" y1="230" x2="250" y2="235.5"/>
    <polygon style="fill: #000000" points="248,235.5 250,239.5 252,235.5 "/>
    <polygon style="fill: none; fill-opacity:0; stroke-width: 1; stroke: #000000" points="248,235.5 250,239.5 252,235.5 "/>
  </g>
  <g>
    <line style="fill: none; fill-opacity:0; stroke-width: 1; stroke: #000000" x1="250" y1="270" x2="250" y2="275.5"/>
    <polygon style="fill: #000000" points="248,275.5 250,279.5 252,275.5 "/>
    <polygon style="fill: none; fill-opacity:0; stroke-width: 1; stroke: #000000" points="248,275.5 250,279.5 252,275.5 "/>
  </g>
  <g>
    <line style="fill: none; fill-opacity:0; stroke-width: 1; stroke: #000000" x1="250" y1="340" x2="250" y2="350.5"/>
    <polygon style="fill: #000000" points="248,350.5 250,354.5 252,350.5 "/>
    <polygon style="fill: none; fill-opacity:0; stroke-width: 1; stroke: #000000" points="248,350.5 250,354.5 252,350.5 "/>
  </g>
  <g>
    <polygon style="fill: #ffffff" points="390,340 430,370 390,400 350,370 "/>
    <polygon style="fill: none; fill-opacity:0; stroke-width: 1; stroke: #000000" points="390,340 430,370 390,400 350,370 "/>
    <text font-size="6.77333" style="fill: #000000;text-anchor:middle;font-family:sans-serif;font-style:normal;font-weight:normal" x="390" y="368.283">
      <tspan x="390" y="368.283">OUTPUT</tspan>
      <tspan x="390" y="376.75">command ?</tspan>
    </text>
  </g>
  <polyline style="fill: none; fill-opacity:0; stroke-width: 1; stroke: #000000" points="390,400 390,410 250,410 "/>
  <g>
    <line style="fill: none; fill-opacity:0; stroke-width: 1; stroke: #000000" x1="290" y1="310" x2="325.5" y2="310"/>
    <polygon style="fill: #000000" points="325.5,312 329.5,310 325.5,308 "/>
    <polygon style="fill: none; fill-opacity:0; stroke-width: 1; stroke: #000000" points="325.5,312 329.5,310 325.5,308 "/>
  </g>
  <g>
    <line style="fill: none; fill-opacity:0; stroke-width: 1; stroke: #000000" x1="390" y1="325" x2="390" y2="335.5"/>
    <polygon style="fill: #000000" points="388,335.5 390,339.5 392,335.5 "/>
    <polygon style="fill: none; fill-opacity:0; stroke-width: 1; stroke: #000000" points="388,335.5 390,339.5 392,335.5 "/>
  </g>
  <g>
    <line style="fill: none; fill-opacity:0; stroke-width: 1; stroke: #000000" x1="350" y1="370" x2="314.5" y2="370"/>
    <polygon style="fill: #000000" points="314.5,368 310.5,370 314.5,372 "/>
    <polygon style="fill: none; fill-opacity:0; stroke-width: 1; stroke: #000000" points="314.5,368 310.5,370 314.5,372 "/>
  </g>
  <g>
    <rect style="fill: #ffffff" x="340" y="430" width="120" height="30"/>
    <rect style="fill: none; fill-opacity:0; stroke-width: 1; stroke: #000000" x="340" y="430" width="120" height="30"/>
    <text font-size="6.77333" style="fill: #000000;text-anchor:middle;font-family:sans-serif;font-style:normal;font-weight:normal" x="400" y="447.517">
      <tspan x="400" y="447.517"></tspan>
    </text>
  </g>
  <g>
    <rect style="fill: #ffffff" x="330" y="440" width="120" height="30"/>
    <rect style="fill: none; fill-opacity:0; stroke-width: 1; stroke: #000000" x="330" y="440" width="120" height="30"/>
    <text font-size="6.77333" style="fill: #000000;text-anchor:middle;font-family:sans-serif;font-style:normal;font-weight:normal" x="390" y="457.517">
      <tspan x="390" y="457.517"></tspan>
    </text>
  </g>
  <g>
    <line style="fill: none; fill-opacity:0; stroke-width: 1; stroke: #000000" x1="270" y1="390" x2="322.356" y2="432.979"/>
    <polygon style="fill: #000000" points="321.087,434.525 325.448,435.517 323.625,431.433 "/>
    <polygon style="fill: none; fill-opacity:0; stroke-width: 1; stroke: #000000" points="321.087,434.525 325.448,435.517 323.625,431.433 "/>
  </g>
  <g>
    <rect style="fill: #ffffff" x="320" y="450" width="120" height="30"/>
    <rect style="fill: none; fill-opacity:0; stroke-width: 1; stroke: #000000" x="320" y="450" width="120" height="30"/>
    <text font-size="6.77333" style="fill: #000000;text-anchor:middle;font-family:sans-serif;font-style:normal;font-weight:normal" x="380" y="463.283">
      <tspan x="380" y="463.283">CE Event Macros and</tspan>
      <tspan x="380" y="471.75">VM Model Event Macros</tspan>
    </text>
  </g>
</svg>
