<?xml version="1.0" encoding="UTF-8" standalone="no"?>
<!DOCTYPE svg PUBLIC "-//W3C//DTD SVG 1.0//EN" "http://www.w3.org/TR/2001/PR-SVG-20010719/DTD/svg10.dtd">
<svg width="16cm" height="22cm" viewBox="139 79 312 432" xmlns="http://www.w3.org/2000/svg" xmlns:xlink="http://www.w3.org/1999/xlink">
  <g>
    <polygon style="fill: #ffffff" points="230,280 270,310 230,340 190,310 "/>
    <polygon style="fill: none; fill-opacity:0; stroke-width: 1; stroke: #000000" points="230,280 270,310 230,340 190,310 "/>
    <text font-size="6.77333" style="fill: #000000;text-anchor:middle;font-family:sans-serif;font-style:normal;font-weight:normal" x="230" y="312.517">
      <tspan x="230" y="312.517">Pre-Processor ?</tspan>
    </text>
  </g>
  <g>
    <path style="fill: #ffffff" d="M 310 144.995 L 370,144.995 L 370,168.995 L 340,174.995 L 310,168.995 L 310,144.995z"/>
    <path style="fill: none; fill-opacity:0; stroke-width: 1; stroke: #000000" d="M 310 144.995 L 370,144.995 L 370,168.995 L 340,174.995 L 310,168.995 L 310,144.995"/>
    <text font-size="6.77333" style="fill: #000000;text-anchor:middle;font-family:sans-serif;font-style:normal;font-weight:normal" x="340" y="159.535">
      <tspan x="340" y="159.535">CeRun End</tspan>
    </text>
  </g>
  <g>
    <rect style="fill: #ffffff" x="330" y="295" width="120" height="30"/>
    <rect style="fill: none; fill-opacity:0; stroke-width: 1; stroke: #000000" x="330" y="295" width="120" height="30"/>
    <line style="fill: none; fill-opacity:0; stroke-width: 1; stroke: #000000" x1="342" y1="295" x2="342" y2="325"/>
    <line style="fill: none; fill-opacity:0; stroke-width: 1; stroke: #000000" x1="438" y1="295" x2="438" y2="325"/>
    <text font-size="6.77333" style="fill: #000000;text-anchor:middle;font-family:sans-serif;font-style:normal;font-weight:normal" x="390" y="312.54">
      <tspan x="390" y="312.54">Pre-Processor</tspan>
    </text>
  </g>
  <g>
    <polygon style="fill: #ffffff" points="198,198 270,198 270,228 190,228 190,201 "/>
    <polygon style="fill: none; fill-opacity:0; stroke-width: 1; stroke: #000000" points="198,198 270,198 270,228 190,228 190,201 "/>
    <text font-size="6.77333" style="fill: #000000;text-anchor:middle;font-family:sans-serif;font-style:normal;font-weight:normal" x="232" y="216.29">
      <tspan x="232" y="216.29">Read MCD</tspan>
    </text>
  </g>
  <g>
    <rect style="fill: #ffffff" x="170" y="240" width="120" height="30"/>
    <rect style="fill: none; fill-opacity:0; stroke-width: 1; stroke: #000000" x="170" y="240" width="120" height="30"/>
    <text font-size="6.77333" style="fill: #000000;text-anchor:middle;font-family:sans-serif;font-style:normal;font-weight:normal" x="230" y="257.517">
      <tspan x="230" y="257.517">Tape Editor</tspan>
    </text>
  </g>
  <g>
    <rect style="fill: #ffffff" x="330" y="255.334" width="120" height="30"/>
    <rect style="fill: none; fill-opacity:0; stroke-width: 1; stroke: #000000" x="330" y="255.334" width="120" height="30"/>
    <text font-size="6.77333" style="fill: #000000;text-anchor:middle;font-family:sans-serif;font-style:normal;font-weight:normal" x="390" y="268.617">
      <tspan x="390" y="268.617">#{Embedded} &amp; Pre-Processor</tspan>
      <tspan x="390" y="277.084">Startup Macros</tspan>
    </text>
  </g>
  <g>
    <rect style="fill: #ffffff" x="330" y="334.666" width="120" height="30"/>
    <rect style="fill: none; fill-opacity:0; stroke-width: 1; stroke: #000000" x="330" y="334.666" width="120" height="30"/>
    <text font-size="6.77333" style="fill: #000000;text-anchor:middle;font-family:sans-serif;font-style:normal;font-weight:normal" x="390" y="347.949">
      <tspan x="390" y="347.949">Pre-Processor</tspan>
      <tspan x="390" y="356.416">Shutdown Macro</tspan>
    </text>
  </g>
  <g>
    <rect style="fill: #ffffff" x="170" y="350" width="120" height="30"/>
    <rect style="fill: none; fill-opacity:0; stroke-width: 1; stroke: #000000" x="170" y="350" width="120" height="30"/>
    <text font-size="6.77333" style="fill: #000000;text-anchor:middle;font-family:sans-serif;font-style:normal;font-weight:normal" x="230" y="363.283">
      <tspan x="230" y="363.283">!{Embedded} &amp; Block </tspan>
      <tspan x="230" y="371.75">Startup Macros</tspan>
    </text>
  </g>
  <g>
    <rect style="fill: #ffffff" x="170" y="390" width="120" height="30"/>
    <rect style="fill: none; fill-opacity:0; stroke-width: 1; stroke: #000000" x="170" y="390" width="120" height="30"/>
    <line style="fill: none; fill-opacity:0; stroke-width: 1; stroke: #000000" x1="182" y1="390" x2="182" y2="420"/>
    <line style="fill: none; fill-opacity:0; stroke-width: 1; stroke: #000000" x1="278" y1="390" x2="278" y2="420"/>
    <text font-size="6.77333" style="fill: #000000;text-anchor:middle;font-family:sans-serif;font-style:normal;font-weight:normal" x="230" y="403.307">
      <tspan x="230" y="403.307">Parsing of MCD into</tspan>
      <tspan x="230" y="411.773">CODE and DATA</tspan>
    </text>
  </g>
  <g>
    <ellipse style="fill: #ffffff" cx="230" cy="445" rx="60" ry="15"/>
    <ellipse style="fill: none; fill-opacity:0; stroke-width: 1; stroke: #000000" cx="230" cy="445" rx="60" ry="15"/>
    <text font-size="6.77333" style="fill: #000000;text-anchor:middle;font-family:sans-serif;font-style:normal;font-weight:normal" x="230" y="447.517">
      <tspan x="230" y="447.517">Code Processing</tspan>
    </text>
  </g>
  <g>
    <rect style="fill: #ffffff" x="170" y="470" width="120" height="30"/>
    <rect style="fill: none; fill-opacity:0; stroke-width: 1; stroke: #000000" x="170" y="470" width="120" height="30"/>
    <text font-size="6.77333" style="fill: #000000;text-anchor:middle;font-family:sans-serif;font-style:normal;font-weight:normal" x="230" y="487.517">
      <tspan x="230" y="487.517">Block Shutdown Macro</tspan>
    </text>
  </g>
  <g>
    <line style="fill: none; fill-opacity:0; stroke-width: 1; stroke: #000000" x1="230" y1="228" x2="230" y2="235.5"/>
    <polygon style="fill: #000000" points="228,235.5 230,239.5 232,235.5 "/>
    <polygon style="fill: none; fill-opacity:0; stroke-width: 1; stroke: #000000" points="228,235.5 230,239.5 232,235.5 "/>
  </g>
  <g>
    <line style="fill: none; fill-opacity:0; stroke-width: 1; stroke: #000000" x1="230" y1="270.491" x2="230" y2="275.5"/>
    <polygon style="fill: #000000" points="228,275.5 230,279.5 232,275.5 "/>
    <polygon style="fill: none; fill-opacity:0; stroke-width: 1; stroke: #000000" points="228,275.5 230,279.5 232,275.5 "/>
  </g>
  <g>
    <line style="fill: none; fill-opacity:0; stroke-width: 1; stroke: #000000" x1="230" y1="340" x2="230" y2="345.5"/>
    <polygon style="fill: #000000" points="228,345.5 230,349.5 232,345.5 "/>
    <polygon style="fill: none; fill-opacity:0; stroke-width: 1; stroke: #000000" points="228,345.5 230,349.5 232,345.5 "/>
  </g>
  <g>
    <line style="fill: none; fill-opacity:0; stroke-width: 1; stroke: #000000" x1="230" y1="380" x2="230" y2="385.009"/>
    <polygon style="fill: #000000" points="228,385.009 230,389.009 232,385.009 "/>
    <polygon style="fill: none; fill-opacity:0; stroke-width: 1; stroke: #000000" points="228,385.009 230,389.009 232,385.009 "/>
  </g>
  <g>
    <line style="fill: none; fill-opacity:0; stroke-width: 1; stroke: #000000" x1="230" y1="420" x2="230" y2="425.009"/>
    <polygon style="fill: #000000" points="228,425.009 230,429.009 232,425.009 "/>
    <polygon style="fill: none; fill-opacity:0; stroke-width: 1; stroke: #000000" points="228,425.009 230,429.009 232,425.009 "/>
  </g>
  <g>
    <line style="fill: none; fill-opacity:0; stroke-width: 1; stroke: #000000" x1="230" y1="460" x2="230" y2="465.5"/>
    <polygon style="fill: #000000" points="228,465.5 230,469.5 232,465.5 "/>
    <polygon style="fill: none; fill-opacity:0; stroke-width: 1; stroke: #000000" points="228,465.5 230,469.5 232,465.5 "/>
  </g>
  <g>
    <line style="fill: none; fill-opacity:0; stroke-width: 1; stroke: #000000" x1="390" y1="285.334" x2="390" y2="290.5"/>
    <polygon style="fill: #000000" points="388,290.5 390,294.5 392,290.5 "/>
    <polygon style="fill: none; fill-opacity:0; stroke-width: 1; stroke: #000000" points="388,290.5 390,294.5 392,290.5 "/>
  </g>
  <g>
    <line style="fill: none; fill-opacity:0; stroke-width: 1; stroke: #000000" x1="390" y1="325" x2="390" y2="330.166"/>
    <polygon style="fill: #000000" points="388,330.166 390,334.166 392,330.166 "/>
    <polygon style="fill: none; fill-opacity:0; stroke-width: 1; stroke: #000000" points="388,330.166 390,334.166 392,330.166 "/>
  </g>
  <g>
    <polyline style="fill: none; fill-opacity:0; stroke-width: 1; stroke: #000000" points="390,364.666 390,380 310,380 310,345 234.5,345 "/>
    <polygon style="fill: #000000" points="234.5,343 230.5,345 234.5,347 "/>
    <polygon style="fill: none; fill-opacity:0; stroke-width: 1; stroke: #000000" points="234.5,343 230.5,345 234.5,347 "/>
  </g>
  <g>
    <polyline style="fill: none; fill-opacity:0; stroke-width: 1; stroke: #000000" points="270,310 270,310 310,310 310,240 390,240 390,250.834 "/>
    <polygon style="fill: #000000" points="388,250.834 390,254.834 392,250.834 "/>
    <polygon style="fill: none; fill-opacity:0; stroke-width: 1; stroke: #000000" points="388,250.834 390,254.834 392,250.834 "/>
  </g>
  <g>
    <polygon style="fill: #ffffff" points="230,130 270,160 230,190 190,160 "/>
    <polygon style="fill: none; fill-opacity:0; stroke-width: 1; stroke: #000000" points="230,130 270,160 230,190 190,160 "/>
    <text font-size="6.77333" style="fill: #000000;text-anchor:middle;font-family:sans-serif;font-style:normal;font-weight:normal" x="230" y="158.283">
      <tspan x="230" y="158.283">MCD</tspan>
      <tspan x="230" y="166.75">End-of-file ?</tspan>
    </text>
  </g>
  <g>
    <line style="fill: none; fill-opacity:0; stroke-width: 1; stroke: #000000" x1="230" y1="110" x2="230" y2="125.5"/>
    <polygon style="fill: #000000" points="228,125.5 230,129.5 232,125.5 "/>
    <polygon style="fill: none; fill-opacity:0; stroke-width: 1; stroke: #000000" points="228,125.5 230,129.5 232,125.5 "/>
  </g>
  <g>
    <polyline style="fill: none; fill-opacity:0; stroke-width: 1; stroke: #000000" points="230,500 230,510 140,510 140,120 225.5,120 "/>
    <polygon style="fill: #000000" points="225.5,122 229.5,120 225.5,118 "/>
    <polygon style="fill: none; fill-opacity:0; stroke-width: 1; stroke: #000000" points="225.5,122 229.5,120 225.5,118 "/>
  </g>
  <g>
    <path style="fill: #ffffff" d="M 196.667 80 L 263.333,80 C 272.538,80 280,86.7157 280,95 C 280,103.284 272.538,110 263.333,110 L 196.667,110 C 187.462,110 180,103.284 180,95 C 180,86.7157 187.462,80 196.667,80z"/>
    <path style="fill: none; fill-opacity:0; stroke-width: 1; stroke: #000000" d="M 196.667 80 L 263.333,80 C 272.538,80 280,86.7157 280,95 C 280,103.284 272.538,110 263.333,110 L 196.667,110 C 187.462,110 180,103.284 180,95 C 180,86.7157 187.462,80 196.667,80"/>
    <text font-size="6.77333" style="fill: #000000;text-anchor:middle;font-family:sans-serif;font-style:normal;font-weight:normal" x="230" y="97.54">
      <tspan x="230" y="97.54">Main Loop</tspan>
    </text>
  </g>
  <g>
    <line style="fill: none; fill-opacity:0; stroke-width: 1; stroke: #000000" x1="230" y1="190" x2="230" y2="193.5"/>
    <polygon style="fill: #000000" points="228,193.5 230,197.5 232,193.5 "/>
    <polygon style="fill: none; fill-opacity:0; stroke-width: 1; stroke: #000000" points="228,193.5 230,197.5 232,193.5 "/>
  </g>
  <g>
    <line style="fill: none; fill-opacity:0; stroke-width: 1; stroke: #000000" x1="270" y1="160" x2="305.003" y2="159.997"/>
    <polygon style="fill: #000000" points="305.003,161.997 309.003,159.997 305.003,157.997 "/>
    <polygon style="fill: none; fill-opacity:0; stroke-width: 1; stroke: #000000" points="305.003,161.997 309.003,159.997 305.003,157.997 "/>
  </g>
</svg>
