<?xml version="1.0" encoding="UTF-8" standalone="no"?>
<!DOCTYPE svg PUBLIC "-//W3C//DTD SVG 1.0//EN" "http://www.w3.org/TR/2001/PR-SVG-20010719/DTD/svg10.dtd">
<svg width="14cm" height="14cm" viewBox="109 79 262 277" xmlns="http://www.w3.org/2000/svg" xmlns:xlink="http://www.w3.org/1999/xlink">
  <g>
    <polygon style="fill: #ffffff" points="170,245 210,275 170,305 130,275 "/>
    <polygon style="fill: none; fill-opacity:0; stroke-width: 1; stroke: #000000" points="170,245 210,275 170,305 130,275 "/>
    <text font-size="6.77333" style="fill: #000000;text-anchor:middle;font-family:sans-serif;font-style:normal;font-weight:normal" x="170" y="277.517">
      <tspan x="170" y="277.517">Multi-Kernel ?</tspan>
    </text>
  </g>
  <g>
    <rect style="fill: #ffffff" x="250" y="260" width="120" height="30"/>
    <rect style="fill: none; fill-opacity:0; stroke-width: 1; stroke: #000000" x="250" y="260" width="120" height="30"/>
    <text font-size="6.77333" style="fill: #000000;text-anchor:middle;font-family:sans-serif;font-style:normal;font-weight:normal" x="310" y="277.517">
      <tspan x="310" y="277.517">Machine Shutdown Macro</tspan>
    </text>
  </g>
  <g>
    <line style="fill: none; fill-opacity:0; stroke-width: 1; stroke: #000000" x1="210" y1="275" x2="245.5" y2="275"/>
    <polygon style="fill: #000000" points="245.5,277 249.5,275 245.5,273 "/>
    <polygon style="fill: none; fill-opacity:0; stroke-width: 1; stroke: #000000" points="245.5,277 249.5,275 245.5,273 "/>
  </g>
  <g>
    <polygon style="fill: #ffffff" points="170,170 210,200 170,230 130,200 "/>
    <polygon style="fill: none; fill-opacity:0; stroke-width: 1; stroke: #000000" points="170,170 210,200 170,230 130,200 "/>
    <text font-size="6.77333" style="fill: #000000;text-anchor:middle;font-family:sans-serif;font-style:normal;font-weight:normal" x="170" y="198.283">
      <tspan x="170" y="198.283">Virtual</tspan>
      <tspan x="170" y="206.75">Machine ?</tspan>
    </text>
  </g>
  <g>
    <rect style="fill: #ffffff" x="250" y="185" width="120" height="30"/>
    <rect style="fill: none; fill-opacity:0; stroke-width: 1; stroke: #000000" x="250" y="185" width="120" height="30"/>
    <text font-size="6.77333" style="fill: #000000;text-anchor:middle;font-family:sans-serif;font-style:normal;font-weight:normal" x="310" y="202.517">
      <tspan x="310" y="202.517">Model Shutdown Macro</tspan>
    </text>
  </g>
  <g>
    <line style="fill: none; fill-opacity:0; stroke-width: 1; stroke: #000000" x1="210" y1="200" x2="245.5" y2="200"/>
    <polygon style="fill: #000000" points="245.5,202 249.5,200 245.5,198 "/>
    <polygon style="fill: none; fill-opacity:0; stroke-width: 1; stroke: #000000" points="245.5,202 249.5,200 245.5,198 "/>
  </g>
  <g>
    <path style="fill: #ffffff" d="M 136.667 80 L 203.333,80 C 212.538,80 220,86.7157 220,95 C 220,103.284 212.538,110 203.333,110 L 136.667,110 C 127.462,110 120,103.284 120,95 C 120,86.7157 127.462,80 136.667,80z"/>
    <path style="fill: none; fill-opacity:0; stroke-width: 1; stroke: #000000" d="M 136.667 80 L 203.333,80 C 212.538,80 220,86.7157 220,95 C 220,103.284 212.538,110 203.333,110 L 136.667,110 C 127.462,110 120,103.284 120,95 C 120,86.7157 127.462,80 136.667,80"/>
    <text font-size="6.77333" style="fill: #000000;text-anchor:middle;font-family:sans-serif;font-style:normal;font-weight:normal" x="170" y="97.54">
      <tspan x="170" y="97.54">CeRun End</tspan>
    </text>
  </g>
  <g>
    <path style="fill: #ffffff" d="M 140 325 L 200,325 L 200,349 L 170,355 L 140,349 L 140,325z"/>
    <path style="fill: none; fill-opacity:0; stroke-width: 1; stroke: #000000" d="M 140 325 L 200,325 L 200,349 L 170,355 L 140,349 L 140,325"/>
    <text font-size="6.77333" style="fill: #000000;text-anchor:middle;font-family:sans-serif;font-style:normal;font-weight:normal" x="170" y="339.54">
      <tspan x="170" y="339.54">Exit CeRun</tspan>
    </text>
  </g>
  <g>
    <line style="fill: none; fill-opacity:0; stroke-width: 1; stroke: #000000" x1="170" y1="230" x2="170" y2="240.5"/>
    <polygon style="fill: #000000" points="168,240.5 170,244.5 172,240.5 "/>
    <polygon style="fill: none; fill-opacity:0; stroke-width: 1; stroke: #000000" points="168,240.5 170,244.5 172,240.5 "/>
  </g>
  <g>
    <polyline style="fill: none; fill-opacity:0; stroke-width: 1; stroke: #000000" points="310,215 310,236 174.5,236 "/>
    <polygon style="fill: #000000" points="174.5,234 170.5,236 174.5,238 "/>
    <polygon style="fill: none; fill-opacity:0; stroke-width: 1; stroke: #000000" points="174.5,234 170.5,236 174.5,238 "/>
  </g>
  <g>
    <rect style="fill: #ffffff" x="110" y="127" width="120" height="30"/>
    <rect style="fill: none; fill-opacity:0; stroke-width: 1; stroke: #000000" x="110" y="127" width="120" height="30"/>
    <text font-size="6.77333" style="fill: #000000;text-anchor:middle;font-family:sans-serif;font-style:normal;font-weight:normal" x="170" y="144.517">
      <tspan x="170" y="144.517">Program Shutdown Macro</tspan>
    </text>
  </g>
  <g>
    <polyline style="fill: none; fill-opacity:0; stroke-width: 1; stroke: #000000" points="310,290 310,310 174.5,310 "/>
    <polygon style="fill: #000000" points="174.5,308 170.5,310 174.5,312 "/>
    <polygon style="fill: none; fill-opacity:0; stroke-width: 1; stroke: #000000" points="174.5,308 170.5,310 174.5,312 "/>
  </g>
  <g>
    <line style="fill: none; fill-opacity:0; stroke-width: 1; stroke: #000000" x1="170" y1="305" x2="170" y2="320.5"/>
    <polygon style="fill: #000000" points="168,320.5 170,324.5 172,320.5 "/>
    <polygon style="fill: none; fill-opacity:0; stroke-width: 1; stroke: #000000" points="168,320.5 170,324.5 172,320.5 "/>
  </g>
  <g>
    <line style="fill: none; fill-opacity:0; stroke-width: 1; stroke: #000000" x1="170" y1="110" x2="170" y2="122.5"/>
    <polygon style="fill: #000000" points="168,122.5 170,126.5 172,122.5 "/>
    <polygon style="fill: none; fill-opacity:0; stroke-width: 1; stroke: #000000" points="168,122.5 170,126.5 172,122.5 "/>
  </g>
  <g>
    <line style="fill: none; fill-opacity:0; stroke-width: 1; stroke: #000000" x1="170" y1="157" x2="170" y2="165.5"/>
    <polygon style="fill: #000000" points="168,165.5 170,169.5 172,165.5 "/>
    <polygon style="fill: none; fill-opacity:0; stroke-width: 1; stroke: #000000" points="168,165.5 170,169.5 172,165.5 "/>
  </g>
</svg>
