<?xml version="1.0" encoding="UTF-8" standalone="no"?>
<!DOCTYPE svg PUBLIC "-//W3C//DTD SVG 1.0//EN" "http://www.w3.org/TR/2001/PR-SVG-20010719/DTD/svg10.dtd">
<svg width="14cm" height="17cm" viewBox="149 24 262 334" xmlns="http://www.w3.org/2000/svg" xmlns:xlink="http://www.w3.org/1999/xlink">
  <g>
    <polygon style="fill: #ffffff" points="210,70 250,100 210,130 170,100 "/>
    <polygon style="fill: none; fill-opacity:0; stroke-width: 1; stroke: #000000" points="210,70 250,100 210,130 170,100 "/>
    <text font-size="6.77333" style="fill: #000000;text-anchor:middle;font-family:sans-serif;font-style:normal;font-weight:normal" x="210" y="102.517">
      <tspan x="210" y="102.517">Multi-Kernel ?</tspan>
    </text>
  </g>
  <g>
    <polygon style="fill: #ffffff" points="210,148 250,178 210,208 170,178 "/>
    <polygon style="fill: none; fill-opacity:0; stroke-width: 1; stroke: #000000" points="210,148 250,178 210,208 170,178 "/>
    <text font-size="6.77333" style="fill: #000000;text-anchor:middle;font-family:sans-serif;font-style:normal;font-weight:normal" x="210" y="176.283">
      <tspan x="210" y="176.283">Virtual</tspan>
      <tspan x="210" y="184.75">Machine ?</tspan>
    </text>
  </g>
  <g>
    <rect style="fill: #ffffff" x="290" y="163" width="120" height="30"/>
    <rect style="fill: none; fill-opacity:0; stroke-width: 1; stroke: #000000" x="290" y="163" width="120" height="30"/>
    <text font-size="6.77333" style="fill: #000000;text-anchor:middle;font-family:sans-serif;font-style:normal;font-weight:normal" x="350" y="176.283">
      <tspan x="350" y="176.283">Model Declaration Macro</tspan>
      <tspan x="350" y="184.75">Model Startup Macro</tspan>
    </text>
  </g>
  <g>
    <line style="fill: none; fill-opacity:0; stroke-width: 1; stroke: #000000" x1="250" y1="178" x2="285.5" y2="178"/>
    <polygon style="fill: #000000" points="285.5,180 289.5,178 285.5,176 "/>
    <polygon style="fill: none; fill-opacity:0; stroke-width: 1; stroke: #000000" points="285.5,180 289.5,178 285.5,176 "/>
  </g>
  <g>
    <line style="fill: none; fill-opacity:0; stroke-width: 1; stroke: #000000" x1="210" y1="130" x2="210" y2="143.5"/>
    <polygon style="fill: #000000" points="208,143.5 210,147.5 212,143.5 "/>
    <polygon style="fill: none; fill-opacity:0; stroke-width: 1; stroke: #000000" points="208,143.5 210,147.5 212,143.5 "/>
  </g>
  <g>
    <line style="fill: none; fill-opacity:0; stroke-width: 1; stroke: #000000" x1="210" y1="208" x2="210" y2="222.834"/>
    <polygon style="fill: #000000" points="208,222.834 210,226.834 212,222.834 "/>
    <polygon style="fill: none; fill-opacity:0; stroke-width: 1; stroke: #000000" points="208,222.834 210,226.834 212,222.834 "/>
  </g>
  <g>
    <path style="fill: #ffffff" d="M 176.667 24.6666 L 243.333,24.6666 C 252.538,24.6666 260,31.3823 260,39.6666 C 260,47.9509 252.538,54.6666 243.333,54.6666 L 176.667,54.6666 C 167.462,54.6666 160,47.9509 160,39.6666 C 160,31.3823 167.462,24.6666 176.667,24.6666z"/>
    <path style="fill: none; fill-opacity:0; stroke-width: 1; stroke: #000000" d="M 176.667 24.6666 L 243.333,24.6666 C 252.538,24.6666 260,31.3823 260,39.6666 C 260,47.9509 252.538,54.6666 243.333,54.6666 L 176.667,54.6666 C 167.462,54.6666 160,47.9509 160,39.6666 C 160,31.3823 167.462,24.6666 176.667,24.6666"/>
    <text font-size="6.77333" style="fill: #000000;text-anchor:middle;font-family:sans-serif;font-style:normal;font-weight:normal" x="210" y="42.2066">
      <tspan x="210" y="42.2066">CeRun Start</tspan>
    </text>
  </g>
  <g>
    <line style="fill: none; fill-opacity:0; stroke-width: 1; stroke: #000000" x1="210" y1="54.6666" x2="210" y2="65.5"/>
    <polygon style="fill: #000000" points="208,65.5 210,69.5 212,65.5 "/>
    <polygon style="fill: none; fill-opacity:0; stroke-width: 1; stroke: #000000" points="208,65.5 210,69.5 212,65.5 "/>
  </g>
  <g>
    <path style="fill: #ffffff" d="M 180 327.334 L 240,327.334 L 240,351.334 L 210,357.334 L 180,351.334 L 180,327.334z"/>
    <path style="fill: none; fill-opacity:0; stroke-width: 1; stroke: #000000" d="M 180 327.334 L 240,327.334 L 240,351.334 L 210,357.334 L 180,351.334 L 180,327.334"/>
    <text font-size="6.77333" style="fill: #000000;text-anchor:middle;font-family:sans-serif;font-style:normal;font-weight:normal" x="210" y="341.874">
      <tspan x="210" y="341.874">Main  Loop</tspan>
    </text>
  </g>
  <g>
    <line style="fill: none; fill-opacity:0; stroke-width: 1; stroke: #000000" x1="210" y1="307.334" x2="210" y2="322.834"/>
    <polygon style="fill: #000000" points="208,322.834 210,326.834 212,322.834 "/>
    <polygon style="fill: none; fill-opacity:0; stroke-width: 1; stroke: #000000" points="208,322.834 210,326.834 212,322.834 "/>
  </g>
  <g>
    <line style="fill: none; fill-opacity:0; stroke-width: 1; stroke: #000000" x1="250" y1="100" x2="285.5" y2="99.7041"/>
    <polygon style="fill: #000000" points="285.517,101.704 289.5,99.6708 285.483,97.7042 "/>
    <polygon style="fill: none; fill-opacity:0; stroke-width: 1; stroke: #000000" points="285.517,101.704 289.5,99.6708 285.483,97.7042 "/>
  </g>
  <g>
    <polyline style="fill: none; fill-opacity:0; stroke-width: 1; stroke: #000000" points="350,114.667 350,137 214.5,137 "/>
    <polygon style="fill: #000000" points="214.5,135 210.5,137 214.5,139 "/>
    <polygon style="fill: none; fill-opacity:0; stroke-width: 1; stroke: #000000" points="214.5,135 210.5,137 214.5,139 "/>
  </g>
  <g>
    <polyline style="fill: none; fill-opacity:0; stroke-width: 1; stroke: #000000" points="350,193 350,215.666 214.5,215.666 "/>
    <polygon style="fill: #000000" points="214.5,213.666 210.5,215.666 214.5,217.666 "/>
    <polygon style="fill: none; fill-opacity:0; stroke-width: 1; stroke: #000000" points="214.5,213.666 210.5,215.666 214.5,217.666 "/>
  </g>
  <g>
    <rect style="fill: #ffffff" x="150" y="277.334" width="120" height="30"/>
    <rect style="fill: none; fill-opacity:0; stroke-width: 1; stroke: #000000" x="150" y="277.334" width="120" height="30"/>
    <text font-size="6.77333" style="fill: #000000;text-anchor:middle;font-family:sans-serif;font-style:normal;font-weight:normal" x="210" y="290.617">
      <tspan x="210" y="290.617">Declaration Macro</tspan>
      <tspan x="210" y="299.084">Program Startup Macro</tspan>
    </text>
  </g>
  <g>
    <line style="fill: none; fill-opacity:0; stroke-width: 1; stroke: #000000" x1="210" y1="257.334" x2="210" y2="272.351"/>
    <polygon style="fill: #000000" points="208,272.351 210,276.351 212,272.351 "/>
    <polygon style="fill: none; fill-opacity:0; stroke-width: 1; stroke: #000000" points="208,272.351 210,276.351 212,272.351 "/>
  </g>
  <g>
    <rect style="fill: #ffffff" x="290" y="84.6666" width="120" height="30"/>
    <rect style="fill: none; fill-opacity:0; stroke-width: 1; stroke: #000000" x="290" y="84.6666" width="120" height="30"/>
    <text font-size="6.77333" style="fill: #000000;text-anchor:middle;font-family:sans-serif;font-style:normal;font-weight:normal" x="350" y="97.9499">
      <tspan x="350" y="97.9499">Declaration Macro</tspan>
      <tspan x="350" y="106.417">Machine Startup Macro</tspan>
    </text>
  </g>
  <g>
    <path style="fill: #ffffff" d="M 176.667 227.334 L 243.333,227.334 C 252.538,227.334 260,234.05 260,242.334 C 260,250.618 252.538,257.334 243.333,257.334 L 176.667,257.334 C 167.462,257.334 160,250.618 160,242.334 C 160,234.05 167.462,227.334 176.667,227.334z"/>
    <path style="fill: none; fill-opacity:0; stroke-width: 1; stroke: #000000" d="M 176.667 227.334 L 243.333,227.334 C 252.538,227.334 260,234.05 260,242.334 C 260,250.618 252.538,257.334 243.333,257.334 L 176.667,257.334 C 167.462,257.334 160,250.618 160,242.334 C 160,234.05 167.462,227.334 176.667,227.334"/>
    <text font-size="6.77333" style="fill: #000000;text-anchor:middle;font-family:sans-serif;font-style:normal;font-weight:normal" x="210" y="244.874">
      <tspan x="210" y="244.874">For each Kernel...</tspan>
    </text>
  </g>
</svg>
